Coordinates
version=1
nRows=22
nColumns=24
inDegrees=yes

Units are S.I. units (second, meters, Newtons, ...)
Angles are in degrees.

endheader
time	pelvis_tilt	pelvis_list	pelvis_rotation	pelvis_tx	pelvis_ty	pelvis_tz	hip_flexion_r	hip_adduction_r	hip_rotation_r	knee_angle_r	ankle_angle_r	subtalar_angle_r	mtp_angle_r	hip_flexion_l	hip_adduction_l	hip_rotation_l	knee_angle_l	ankle_angle_l	subtalar_angle_l	mtp_angle_l	lumbar_extension	lumbar_bending	lumbar_rotation
      2.89000000	     -5.43378465	     -1.41242528	      6.17102016	      0.16996177	      0.99071069	      0.06368858	     11.16332315	     -0.38368514	    -15.70015534	    -10.78134959	      2.95674359	      0.00000000	      0.00000000	     16.56073533	    -10.71213410	     -3.39643614	    -55.51759547	      3.32998696	      0.00000000	      0.00000000	     -2.42693817	      2.84901614	      7.00244242
      2.90000000	     -5.44903496	     -1.27356208	      6.20480047	      0.16910403	      0.99105671	      0.06517904	     10.65205131	     -0.35779021	    -15.67664479	    -10.60593699	      3.28833028	      0.00000000	      0.00000000	     17.15326522	    -10.49956636	     -3.50541628	    -55.21074834	      4.29355488	      0.00000000	      0.00000000	     -2.35214523	      2.69602172	      7.09795291
      2.91000000	     -5.44230468	     -1.13238010	      6.25262253	      0.16807173	      0.99134955	      0.06651962	     10.18960217	     -0.36666992	    -15.69203482	    -10.56948382	      3.58197920	      0.00000000	      0.00000000	     17.73521184	    -10.24581351	     -3.57324322	    -54.77467462	      5.11274083	      0.00000000	      0.00000000	     -2.32734001	      2.54262259	      7.17276445
      2.92000000	     -5.46522625	     -1.00000683	      6.31751879	      0.16707897	      0.99157854	      0.06776265	      9.73111934	     -0.37020071	    -15.70734252	    -10.48213475	      3.87811882	      0.00000000	      0.00000000	     18.30780399	     -9.97438518	     -3.62793664	    -54.11910375	      5.75141888	      0.00000000	      0.00000000	     -2.25354084	      2.39629117	      7.21316437
      2.93000000	     -5.48607001	     -0.77296445	      6.42788274	      0.16593032	      0.99175167	      0.06878834	      9.30781837	     -0.50440547	    -15.77617255	    -10.49822785	      4.24648123	      0.00000000	      0.00000000	     18.85471541	     -9.54138682	     -3.63213621	    -53.30860641	      6.47835751	      0.00000000	      0.00000000	     -2.22667637	      2.14752903	      7.19938612
      2.94000000	     -5.51779684	     -0.74279442	      6.51371996	      0.16483549	      0.99185210	      0.06987767	      8.90007070	     -0.41334798	    -15.76227979	    -10.46296070	      4.45165682	      0.00000000	      0.00000000	     19.40680803	     -9.34376664	     -3.66813795	    -52.30959921	      6.78752187	      0.00000000	      0.00000000	     -2.14881742	      2.11479522	      7.22749376
      2.95000000	     -5.59151082	     -0.65258823	      6.62815228	      0.16381067	      0.99185488	      0.07077150	      8.48040462	     -0.39518340	    -15.76536942	    -10.34705683	      4.74554621	      0.00000000	      0.00000000	     19.93836531	     -9.03923514	     -3.69234006	    -51.13027164	      7.23557568	      0.00000000	      0.00000000	     -2.01862396	      2.00804642	      7.22239105
      2.96000000	     -5.67053137	     -0.21569388	      6.82229991	      0.16263757	      0.99185206	      0.07123874	      8.06033903	     -0.80118733	    -15.92129096	    -10.30984567	      5.24006288	      0.00000000	      0.00000000	     20.37882051	     -8.27606409	     -3.67882597	    -49.77602934	      7.82869004	      0.00000000	      0.00000000	     -1.96011532	      1.52323130	      7.13461798
      2.97000000	     -5.72835006	     -0.24013625	      6.93909689	      0.16142203	      0.99174319	      0.07205209	      7.69729833	     -0.67631600	    -15.92264022	    -10.30721397	      5.44980140	      0.00000000	      0.00000000	     20.88853994	     -8.10216637	     -3.71910313	    -48.36201131	      7.98051731	      0.00000000	      0.00000000	     -1.88461156	      1.53564556	      7.14943543
      2.98000000	     -5.83066895	      0.20176030	      7.11910028	      0.16031842	      0.99171160	      0.07241111	      7.26472905	     -1.08524733	    -16.06956411	    -10.20018497	      5.89827000	      0.00000000	      0.00000000	     21.21713555	     -7.34942213	     -3.79308993	    -46.59740487	      8.11477375	      0.00000000	      0.00000000	     -1.81017351	      1.02910904	      7.11264996
      2.99000000	     -5.91695696	      0.36522884	      7.26286122	      0.15915758	      0.99154981	      0.07295055	      6.85562592	     -1.17302904	    -16.14181194	    -10.10252214	      6.21142880	      0.00000000	      0.00000000	     21.59913942	     -6.96567001	     -3.93710382	    -44.82908622	      8.09359605	      0.00000000	      0.00000000	     -1.74288962	      0.81428605	      7.13322931
      3.00000000	     -5.98857155	      0.59294163	      7.39399385	      0.15791115	      0.99142570	      0.07330427	      6.45200424	     -1.35219980	    -16.23017451	    -10.05922410	      6.49440934	      0.00000000	      0.00000000	     21.90083872	     -6.50648649	     -4.12281089	    -42.90338819	      7.93948895	      0.00000000	      0.00000000	     -1.72505320	      0.54676042	      7.17806690
      3.01000000	     -6.10615672	      0.68965074	      7.51521102	      0.15670833	      0.99112931	      0.07369829	      6.06737893	     -1.37672822	    -16.31052663	     -9.91381222	      6.76147111	      0.00000000	      0.00000000	     22.27164596	     -6.21966496	     -4.37803719	    -40.95631554	      7.75156234	      0.00000000	      0.00000000	     -1.63982993	      0.40229860	      7.25333194
      3.02000000	     -6.21982576	      0.57211829	      7.66913060	      0.15539829	      0.99068734	      0.07405676	      5.75771109	     -1.18049183	    -16.38685522	     -9.88209913	      6.97532245	      0.00000000	      0.00000000	     22.72503349	     -6.15738528	     -4.58961748	    -39.07271044	      7.71179313	      0.00000000	      0.00000000	     -1.55581422	      0.49510431	      7.31114358
      3.03000000	     -6.31239389	      0.99979710	      7.69765208	      0.15422634	      0.99054957	      0.07424749	      5.33257882	     -1.57848130	    -16.46414309	     -9.78778134	      7.25996000	      0.00000000	      0.00000000	     22.79931181	     -5.55210689	     -5.07394511	    -36.66966242	      6.97884636	      0.00000000	      0.00000000	     -1.58054731	     -0.01964832	      7.51525411
      3.04000000	     -6.46009476	      0.98127762	      7.77318034	      0.15303855	      0.99004268	      0.07443448	      4.97978110	     -1.48510459	    -16.56624246	     -9.60156459	      7.52545966	      0.00000000	      0.00000000	     23.15781200	     -5.41062724	     -5.45288423	    -34.56319598	      6.56372131	      0.00000000	      0.00000000	     -1.46915975	     -0.04047985	      7.70184780
      3.05000000	     -6.56684790	      1.18901003	      7.81457194	      0.15178889	      0.98969487	      0.07460849	      4.62275740	     -1.64840538	    -16.55807551	     -9.56142044	      7.73765263	      0.00000000	      0.00000000	     23.32742600	     -5.06172849	     -6.02543674	    -32.21489259	      5.75040008	      0.00000000	      0.00000000	     -1.48020879	     -0.33007911	      7.87973420
      3.06000000	     -6.70496053	      1.00929859	      7.94779858	      0.15059476	      0.98898614	      0.07461478	      4.32529546	     -1.39998851	    -16.67184843	     -9.50475600	      7.99929786	      0.00000000	      0.00000000	     23.73906291	     -5.06662174	     -6.39721691	    -30.17194652	      5.52309678	      0.00000000	      0.00000000	     -1.37523712	     -0.17889718	      7.98273096
      3.07000000	     -6.87189653	      1.31321230	      7.84707453	      0.14936303	      0.98855428	      0.07466212	      4.01598170	     -1.67789435	    -16.58602113	     -9.40866087	      8.20819504	      0.00000000	      0.00000000	     23.83864071	     -4.61755782	     -7.02569948	    -27.60627543	      3.98677620	      0.00000000	      0.00000000	     -1.34745262	     -0.57552183	      8.33768924
      3.08000000	     -6.86058967	      1.57963232	      7.77133448	      0.14822538	      0.98820345	      0.07455255	      3.56378346	     -1.91247106	    -16.53674224	     -9.44910784	      8.57835379	      0.00000000	      0.00000000	     23.76025292	     -4.20629219	     -7.66846842	    -25.08779250	      2.96310892	      0.00000000	      0.00000000	     -1.52006439	     -0.89295303	      8.63936313
      3.09000000	     -7.05613895	      1.62469175	      7.76127404	      0.14702161	      0.98744281	      0.07431315	      3.32974707	     -1.93805788	    -16.51457944	     -9.40915631	      8.78875598	      0.00000000	      0.00000000	     24.02991528	     -3.95470094	     -8.09203071	    -22.73478008	      1.68623556	      0.00000000	      0.00000000	     -1.41869767	     -0.99570379	      8.87516334
      3.10000000	     -7.24281410	      1.68367435	      7.72402706	      0.14581298	      0.98665119	      0.07396434	      3.09557537	     -1.98550581	    -16.45827810	     -9.39957121	      9.05861353	      0.00000000	      0.00000000	     24.26119227	     -3.66918222	     -8.43416923	    -20.33974019	      0.31360266	      0.00000000	      0.00000000	     -1.33698807	     -1.10522984	      9.10891989
